<svg t="1638861192691" class="icon" viewBox="0 0 1024 1024" version="1.1" xmlns="http://www.w3.org/2000/svg" p-id="32347" width="200" height="200"><path d="M392 35.2H113.6c-43.2 0-80 35.2-80 80v278.4c0 43.2 35.2 80 80 80h278.4c43.2 0 80-35.2 80-80V113.6c0-43.2-36.8-78.4-80-78.4z m1.6 377.6V432v-19.2z m-1.6 139.2H113.6c-43.2 0-80 35.2-80 80v278.4c0 43.2 35.2 80 80 80h278.4c43.2 0 80-35.2 80-80V632c0-44.8-36.8-80-80-80z m1.6 385.6v11.2-11.2z m513.6-385.6H630.4c-43.2 0-80 35.2-80 80v278.4c0 43.2 35.2 80 80 80h278.4c43.2 0 80-35.2 80-80V632c-1.6-44.8-36.8-80-81.6-80zM934.4 176h-27.2c-1.6-1.6-3.2-4.8-3.2-8l16-27.2c11.2-27.2 3.2-60.8-22.4-76.8l-35.2-22.4c-11.2-8-25.6-9.6-40-6.4-14.4 4.8-25.6 14.4-33.6 25.6l-14.4 25.6h-8L752 60.8c-8-12.8-19.2-22.4-33.6-25.6-12.8-4.8-28.8-1.6-40 6.4L643.2 64c-24 16-33.6 49.6-19.2 75.2l16 27.2c-1.6 1.6-3.2 4.8-3.2 8H608c-30.4 0-54.4 25.6-54.4 56v43.2c0 30.4 24 56 54.4 56h27.2c1.6 1.6 3.2 4.8 3.2 8l-16 27.2c-14.4 25.6-6.4 59.2 19.2 75.2l35.2 22.4c8 6.4 17.6 8 27.2 8 3.2 0 9.6 0 14.4-1.6 14.4-4.8 25.6-14.4 33.6-25.6l14.4-25.6h8l14.4 25.6c8 14.4 19.2 22.4 33.6 25.6 14.4 3.2 27.2 1.6 40-6.4l35.2-22.4c24-16 33.6-49.6 19.2-75.2l-16-27.2c1.6-1.6 3.2-4.8 3.2-8h27.2c30.4 0 52.8-25.6 52.8-56v-43.2c3.2-28.8-20.8-54.4-49.6-54.4z m-164.8 156.8c-43.2 0-80-35.2-80-80 0-43.2 35.2-80 80-80 43.2 0 80 35.2 80 80-1.6 44.8-36.8 80-80 80z" p-id="32348"></path></svg>