<svg t="1638861566877" class="icon" viewBox="0 0 1024 1024" version="1.1" xmlns="http://www.w3.org/2000/svg" p-id="44685" width="200" height="200"><path d="M709.676522 44.521739v148.702609a82.810435 82.810435 0 0 0 83.255652 83.255652h148.702609a53.871304 53.871304 0 0 0-15.582609-37.398261l-178.086957-178.086956A54.761739 54.761739 0 0 0 712.347826 44.521739z" p-id="44686"></path><path d="M772.006957 325.008696a110.413913 110.413913 0 0 1-110.859131-110.859131V44.521739H193.224348a111.304348 111.304348 0 0 0-110.859131 110.859131v712.347826A111.304348 111.304348 0 0 0 193.224348 979.478261h637.551304a111.304348 111.304348 0 0 0 110.859131-110.859131V325.008696z m-123.770435 417.168695c-9.349565 9.349565 33.391304 49.41913 35.617391 79.693913s-65.001739 70.344348-89.043478 57.878261c-15.137391-7.123478-37.398261-53.426087-53.871305-75.241739a227.06087 227.06087 0 0 1-60.104347 7.568696 238.636522 238.636522 0 0 1-240.417392-238.636522 239.081739 239.081739 0 0 1 478.163479 0 235.965217 235.965217 0 0 1-70.344348 168.737391z" p-id="44687"></path><path d="M445.217391 451.895652a20.034783 20.034783 0 0 0-16.027826 0 146.476522 146.476522 0 0 0-67.227826 84.146087 133.565217 133.565217 0 0 0 12.02087 103.735652 20.925217 20.925217 0 0 0 36.507826-20.925217 96.612174 96.612174 0 0 1 37.398261-129.113044 20.925217 20.925217 0 0 0 7.568695-28.493913 19.589565 19.589565 0 0 0-10.24-9.349565z" p-id="44688"></path><path d="M605.050435 720.806957A195.450435 195.450435 0 1 0 311.652174 667.826087a191.443478 191.443478 0 0 0 118.427826 89.043478 181.648696 181.648696 0 0 0 50.754783 7.123478 194.114783 194.114783 0 0 0 64.556521-7.123478l38.288696 65.892174a33.391304 33.391304 0 0 0 20.48 17.363478 18.253913 18.253913 0 0 0 7.123478 0 37.843478 37.843478 0 0 0 19.144348-5.787826 30.72 30.72 0 0 0 12.911304-44.521739z m-258.226087-72.570435a152.709565 152.709565 0 0 1 56.097391-209.252174 150.928696 150.928696 0 0 1 76.132174-20.925218 154.935652 154.935652 0 0 1 40.069565 5.342609 153.154783 153.154783 0 1 1-172.29913 224.834783z" p-id="44689"></path></svg>