<svg t="1639014753579" class="icon" viewBox="0 0 1024 1024" version="1.1" xmlns="http://www.w3.org/2000/svg" p-id="1868" width="200" height="200"><path d="M469.333 681.387c-36.053-2.432-71.253-8.534-104.96-17.92L294.571 813.14a42.368 42.368 0 0 1-56.534 20.267 42.667 42.667 0 0 1-20.821-56.32l66.987-143.659a451.712 451.712 0 0 1-148.907-112.682 388.693 388.693 0 0 1-70.57-119.339 42.667 42.667 0 1 1 80.127-29.355 303.445 303.445 0 0 0 55.211 93.099c70.57 82.261 182.955 132.181 305.664 132.181 122.752 0 235.136-49.962 305.707-132.181a303.445 303.445 0 0 0 55.21-93.099 42.667 42.667 0 0 1 80.128 29.355 388.693 388.693 0 0 1-70.57 119.339 423.68 423.68 0 0 1-18.774 20.48l104.363 104.362a42.667 42.667 0 0 1-0.299 60.032 42.368 42.368 0 0 1-60.032 0.299L791.808 596.267c-20.48 14.08-42.24 26.581-65.024 37.418l66.901 143.36a42.667 42.667 0 0 1-20.821 56.363 42.368 42.368 0 0 1-56.533-20.267l-69.718-149.546a520.533 520.533 0 0 1-91.946 16.81v130.646A42.667 42.667 0 0 1 512 853.333c-23.723 0-42.667-18.944-42.667-42.24V681.387z" p-id="1869"></path><path d="M176.128 524.373a42.368 42.368 0 0 1 60.032 0.256 42.667 42.667 0 0 1 0.299 60.075L115.243 705.92a42.368 42.368 0 0 1-60.075-0.299 42.667 42.667 0 0 1-0.299-60.032l121.259-121.258z" p-id="1870"></path></svg>