<svg t="1638860666470" class="icon" viewBox="0 0 1024 1024" version="1.1" xmlns="http://www.w3.org/2000/svg" p-id="20707" width="200" height="200"><path d="M269.673 145.454c9.678 47.414 51.39 81.465 99.782 81.455h285.09c48.391 0.01 90.104-34.041 99.782-81.455h83.45c67.4-0.022 122.088 54.538 122.223 121.938v570.67A122.06 122.06 0 0 1 837.777 960H186.182C118.798 960 64.135 905.446 64 838.062v-570.67a122.06 122.06 0 0 1 122.223-121.938h83.45z m38.69 244.364a40.727 40.727 0 1 0 0 81.455h244.364c22.49-0.004 40.721-18.237 40.721-40.728 0-22.49-18.23-40.723-40.72-40.727H308.363z m-40.72 203.636c0 22.491 18.23 40.724 40.72 40.728h407.273c22.491-0.004 40.721-18.237 40.721-40.728 0-22.49-18.23-40.723-40.72-40.727H308.363c-22.491 0.004-40.721 18.237-40.721 40.727z m40.72 122.182c-22.492 0-40.727 18.234-40.727 40.727 0 22.494 18.235 40.728 40.728 40.728h244.363c22.493 0 40.728-18.234 40.728-40.728 0-22.493-18.235-40.727-40.728-40.727H308.364zM369.456 64h285.09c33.74 0 61.091 27.351 61.091 61.09 0 33.74-27.351 61.092-61.09 61.092H369.454c-33.74 0-61.091-27.352-61.091-61.091 0-33.74 27.351-61.091 61.09-61.091z" p-id="20708"></path></svg>