<svg t="1638861621915" class="icon" viewBox="0 0 1024 1024" version="1.1" xmlns="http://www.w3.org/2000/svg" p-id="47603" width="200" height="200"><path d="M612.998133 5.097698a63.72122 63.72122 0 0 1 44.604854 18.479153l217.289359 217.926572a63.72122 63.72122 0 0 1 19.116366 44.604853v166.949596a91.758556 91.758556 0 0 0-84.749222 23.576851l-6.372122 7.009334a95.581829 95.581829 0 0 0-17.20473 93.032981h-118.521468a93.032981 93.032981 0 0 0-63.72122 27.400124A94.307405 94.307405 0 0 0 576.039826 670.984443v8.920971a93.032981 93.032981 0 0 0 92.395768 84.749222h118.521469a93.670193 93.670193 0 0 0 87.935283 127.442439h20.39079v63.72122a63.72122 63.72122 0 0 1-63.721219 63.72122h-764.654636a63.72122 63.72122 0 0 1-63.72122-63.72122v-892.097075a63.72122 63.72122 0 0 1 63.72122-63.72122z m240.228998 517.416303a28.674549 28.674549 0 0 1 21.028003-7.646546 27.400124 27.400124 0 0 1 21.028002 9.558183l117.884257 127.442439V666.523958l-117.884257 127.442439a28.037337 28.037337 0 0 1-20.39079 9.558183 27.400124 27.400124 0 0 1-21.665215-8.283759 29.948973 29.948973 0 0 1 0-42.693217l71.367766-77.739888h-254.884878a29.948973 29.948973 0 0 1-21.028003-8.920971 32.497822 32.497822 0 0 1-8.283758-21.665214 32.497822 32.497822 0 0 1 8.283758-21.028003 29.948973 29.948973 0 0 1 21.028003-8.92097h254.884878l-72.64219-51.614188a29.948973 29.948973 0 0 1 0-42.693218zM479.820784 641.672682h-254.884879a31.86061 31.86061 0 0 0-31.223397 29.311761 30.586185 30.586185 0 0 0 26.1257 33.772246h259.982576a31.86061 31.86061 0 0 0 31.86061-31.860609 31.86061 31.86061 0 0 0-31.86061-31.86061z m191.163659-191.163659h-446.048538a31.223398 31.223398 0 0 0-31.223397 28.674549 31.86061 31.86061 0 0 0 26.1257 34.409458h451.146235a31.86061 31.86061 0 0 0 31.86061-31.860609 31.86061 31.86061 0 0 0-31.86061-31.86061z m-254.884879-191.163659h-191.163659a31.223398 31.223398 0 0 0-31.223397 28.674549 31.86061 31.86061 0 0 0 26.1257 34.409458h196.261356a31.86061 31.86061 0 0 0 31.86061-31.860609 31.86061 31.86061 0 0 0-31.86061-31.86061z m196.898569-191.163659h-5.73491v223.024269h223.024269V285.471064z m0 0" p-id="47604"></path></svg>