<svg t="1639034980292" class="icon" viewBox="0 0 1024 1024" version="1.1" xmlns="http://www.w3.org/2000/svg" p-id="2480" width="200" height="200"><path d="M898.59 839.44c0 32.9-26.67 59.56-59.56 59.56H183.88c-32.9 0-59.56-26.66-59.56-59.56V184.29c0-32.9 26.66-59.56 59.56-59.56h655.15c32.9 0 59.56 26.66 59.56 59.56v655.15zM839.03 65.17H183.88c-65.78 0-119.12 53.34-119.12 119.12v655.15c0 65.79 53.34 119.12 119.12 119.12h655.15c65.79 0 119.12-53.33 119.12-119.12V184.29c0-65.78-53.33-119.12-119.12-119.12z" p-id="2481"></path></svg>