<svg t="1639014732782" class="icon" viewBox="0 0 1024 1024" version="1.1" xmlns="http://www.w3.org/2000/svg" p-id="1732" width="200" height="200"><path d="M512 923.136c-372.352 0-512-418.901-512-418.901S139.648 85.333 512 85.333s512 418.902 512 418.902S884.352 923.22 512 923.136z m0-85.333c296.533 0.042 407.723-333.568 407.723-333.568S808.49 170.667 512 170.667c-296.533 0-407.723 333.568-407.723 333.568S215.51 837.803 512 837.803z m75.392-570.539a128 128 0 1 0 169.344 169.387 256 256 0 1 1-169.344-169.344z" p-id="1733"></path></svg>