<svg t="1638860602704" class="icon" viewBox="0 0 1024 1024" version="1.1" xmlns="http://www.w3.org/2000/svg" p-id="15741" width="200" height="200"><path d="M219.477333 550.855111v73.671111h73.102223v-73.671111h-73.102223z m0 221.127111v73.671111h73.102223v-73.671111h-73.102223z m146.204445 0v73.671111h438.840889v-73.671111H365.681778z m0-221.127111v73.671111h438.840889v-73.671111H365.681778zM462.108444 0c29.411556 0 54.954667 19.114667 62.008889 46.421333l19.911111 76.060445H960c35.271111 0 64 27.534222 64 61.269333v778.979556C1024 996.579556 995.328 1024 960 1024H64C28.728889 1024 0 996.465778 0 962.730667V61.269333C0 27.420444 28.672 0 64 0h398.108444z m-22.698666 208.241778h-27.505778c-2.56-5.575111-6.257778-17.208889-10.979556-25.486222l19.427556-18.858667a15.36 15.36 0 0 0 0-21.902222L398.222222 119.893333a15.701333 15.701333 0 0 0-22.186666 0.085334l-18.346667 19.456c-8.248889-4.693333-19.882667-8.334222-25.457778-10.951111v-27.477334c0-8.675556-9.187556-15.701333-17.863111-15.701333H283.022222c-8.675556 0-17.863111 7.025778-17.863111 15.701333v27.505778c-5.575111 2.56-17.180444 6.257778-25.457778 10.951111l-18.887111-19.427555a15.36 15.36 0 0 0-21.902222 0L176.782222 142.222222a15.701333 15.701333 0 0 0 0.085334 22.186667l19.456 18.346667c-4.693333 8.248889-8.334222 19.882667-10.922667 25.457777h-27.505778c-8.675556 0-15.701333 9.187556-15.701333 17.863111V257.422222c0 8.647111 7.025778 17.863111 15.701333 17.863111h27.505778c2.56 5.575111 6.257778 17.180444 10.951111 25.457778l-19.427556 18.915556a15.36 15.36 0 0 0 0 21.902222l22.186667 22.044444a15.701333 15.701333 0 0 0 22.186667-0.085333l18.318222-19.456c8.305778 4.693333 19.911111 8.334222 25.486222 10.922667v27.505777c0 8.675556 9.187556 15.701333 17.863111 15.701334h31.345778c8.647111 0 17.863111-7.025778 17.863111-15.701334v-27.505777c5.575111-2.56 17.180444-6.257778 25.486222-10.979556l18.887112 19.427556a15.36 15.36 0 0 0 21.902222 0l22.044444-22.158223a15.701333 15.701333 0 0 0-0.085333-22.186666l-19.456-18.346667c4.693333-8.248889 8.334222-19.882667 10.922667-25.457778h27.505777c8.675556 0 15.701333-9.187556 15.701334-17.863111V226.133333c0-8.675556-7.025778-17.863111-15.701334-17.863111zM298.666667 312.888889a71.111111 71.111111 0 1 1 0-142.222222 71.111111 71.111111 0 0 1 0 142.222222z" p-id="15742"></path></svg>