<svg t="1638860248557" class="icon" viewBox="0 0 1024 1024" version="1.1" xmlns="http://www.w3.org/2000/svg" p-id="5680" width="200" height="200"><path d="M1019.392 890.88V253.952c0-77.312-70.144-70.144-70.144-70.144h-398.848c-23.552 0-36.864-11.776-36.864-11.776S496.64 143.36 464.896 98.304C436.224 48.128 399.36 56.32 399.36 56.32H91.136c-87.04 0-87.04 81.92-87.04 81.92v747.52c0 93.696 70.144 81.92 70.144 81.92H957.44c73.728 0 61.952-76.8 61.952-76.8zM262.144 729.6c-31.744 0-53.76-23.552-53.76-53.76 0-31.744 23.552-53.76 53.76-53.76 31.744 0 53.76 25.088 53.76 53.76-0.512 28.672-23.552 53.76-53.76 53.76z m0-200.704c-31.744 0-53.76-23.552-53.76-53.76 0-28.672 23.552-53.76 53.76-53.76 31.744 0 53.76 25.088 53.76 53.76-0.512 28.672-23.552 53.76-53.76 53.76z m525.824 197.632H448c-28.672 0-50.176-23.552-50.176-50.176 0-26.624 23.552-50.176 50.176-50.176h339.968c28.672 0 50.176 23.552 50.176 50.176 0 26.624-21.504 50.176-50.176 50.176z m0-201.216H448c-28.672 0-50.176-23.552-50.176-50.176 0-28.672 23.552-50.176 50.176-50.176h339.968c28.672 0 50.176 23.552 50.176 50.176 0 28.672-21.504 50.176-50.176 50.176z" p-id="5681"></path></svg>