<svg t="1638861410702" class="icon" viewBox="0 0 1024 1024" version="1.1" xmlns="http://www.w3.org/2000/svg" p-id="36847" width="200" height="200"><path d="M429.926 469.926H52c-22.091 0-40-17.909-40-40V142C12 70.203 70.203 12 142 12h287.926c22.091 0 40 17.909 40 40v377.926c0 22.091-17.909 40-40 40zM469.926 594.074V972c0 22.091-17.909 40-40 40H142c-71.797 0-130-58.203-130-130V594.074c0-22.091 17.909-40 40-40h377.926c22.091 0 40 17.909 40 40zM594.074 554.074H972c22.091 0 40 17.909 40 40V882c0 71.797-58.203 130-130 130H594.074c-22.091 0-40-17.909-40-40V594.074c0-22.091 17.909-40 40-40z" fill="#9FC6EC" p-id="36848"></path><path d="M850.745 259.4c20.487-12.803 79.385-38.411 79.385-112.673 0-71.704-58.898-120.357-110.115-130.601-51.217-10.243-102.431-2.561-143.405 38.413-33.29 38.411-40.972 66.58-40.972 135.721h79.385v-17.924c0-35.853 2.561-71.704 53.775-84.507 28.169-5.121 53.777 2.561 69.143 17.925 17.924 17.926 17.924 56.338-10.245 76.825l-46.093 28.169c-25.608 17.924-33.29 33.29-33.29 61.459v89.628h79.383v-61.459c-5.12-12.807 5.125-28.171 23.049-40.976z m0 0" fill="#9FC6EC" p-id="36849"></path><path d="M784.165 392.562c-23.048 0-38.411 17.924-38.411 38.411 0 23.048 17.924 38.411 38.411 38.411 23.048 0 38.411-17.924 38.411-38.411 0-17.924-15.363-38.411-38.411-38.411z m0 0" fill="#9FC6EC" p-id="36850"></path></svg>