<svg t="1638861279444" class="icon" viewBox="0 0 1210 1024" version="1.1" xmlns="http://www.w3.org/2000/svg" p-id="36444" width="200" height="200"><path d="M102.306909 0h1005.568C1176.064 0 1210.181818 34.304 1210.181818 102.912v818.176C1210.181818 989.696 1176.087273 1024 1107.874909 1024H102.306909C34.117818 1024 0 989.696 0 921.088V102.912C0 34.304 34.094545 0 102.306909 0z" fill="#6B6F98" p-id="36445"></path><path d="M232.727273 267.636364a128 128 0 1 0 256 0 128 128 0 0 0-256 0zM280.855273 535.272727h159.744c32.093091 0 48.128 19.386182 48.128 58.181818s-16.058182 58.181818-48.128 58.181819h-159.744C248.762182 651.636364 232.727273 632.250182 232.727273 593.454545s16.058182-58.181818 48.128-58.181818zM746.309818 768h159.744c32.093091 0 48.128 19.386182 48.128 58.181818s-16.058182 58.181818-48.128 58.181818h-159.744C714.216727 884.363636 698.181818 864.977455 698.181818 826.181818s16.058182-58.181818 48.128-58.181818z" fill="#FFFFFF" p-id="36446"></path><path d="M496.221091 884.363636H260.840727A51.595636 51.595636 0 0 1 209.454545 832.558545c0-28.625455 23.016727-51.805091 51.386182-51.80509h210.199273l225.093818-310.853819a51.269818 51.269818 0 0 1 41.122909-21.224727h94.557091l-37.003636-31.092364a52.154182 52.154182 0 0 1-6.679273-73.05309 51.176727 51.176727 0 0 1 72.448-6.749091l145.454546 123.322181c16.244364 14.010182 22.178909 36.724364 14.894545 56.99491a51.432727 51.432727 0 0 1-48.314182 34.187636h-209.152l-225.093818 310.830545a51.269818 51.269818 0 0 1-42.146909 21.248z" fill="#FFFFFF" p-id="36447"></path><path d="M1000.727273 512l-139.636364 116.363636" fill="#528DFF" p-id="36448"></path><path d="M839.982545 651.636364a48.523636 48.523636 0 0 1-38.027636-18.781091 49.873455 49.873455 0 0 1 7.307636-69.166546l135.563637-110.685091a48.337455 48.337455 0 0 1 68.258909 7.400728 49.873455 49.873455 0 0 1-7.307636 69.678545l-135.07491 110.196364a48.384 48.384 0 0 1-30.72 11.357091z" fill="#FFFFFF" p-id="36449"></path></svg>