<svg t="1638860512512" class="icon" viewBox="0 0 1024 1024" version="1.1" xmlns="http://www.w3.org/2000/svg" p-id="14917" width="200" height="200"><path d="M527.36 469.882435c37.487304-56.141913 89.533217-126.308174 93.673739-242.598957C614.845217 84.947478 512.801391 0.75687 385.691826 0.75687c-127.020522 0-227.016348 84.146087-235.297391 226.526608 6.277565 178.487652 131.250087 246.650435 127.020522 328.793044 4.140522 114.287304-274.966261 80.228174-274.966261 204.532869 0 92.249043 106.184348 82.18713 106.184347 82.187131h312.409044c-14.558609-38.110609-24.976696-78.180174-24.976696-120.297739a321.090783 321.090783 0 0 1 131.205566-252.616348h0.089043z m191.710609 366.146782a113.664 113.664 0 0 1-114.242783-113.263304 114.910609 114.910609 0 0 1 114.287304-113.842087c62.775652 0 112.105739 52.179478 112.10574 113.842087 0 62.864696-49.241043 113.263304-112.194783 113.263304z m235.876174-166.066087l-50.131479-10.640695c-2.092522-7.702261-6.90087-14.825739-8.993391-21.370435l28.271304-41.405217c7.657739-15.449043 7.657739-32.100174-4.763826-41.583305l-30.274782-33.213217a38.110609 38.110609 0 0 0-24.041739-7.746783c-4.719304 0-11.575652 0-16.339479 3.027479l-43.586782 30.764521c-6.767304-5.253565-14.514087-6.500174-21.370435-10.685217l-9.794783-49.730783c-1.736348-13.668174-15.36-25.466435-31.699478-25.466435h-44.432696c-16.339478 0-27.024696 11.798261-30.898087 25.466435l-9.794782 49.819826c-8.592696 4.096-14.558609 5.342609-21.370435 10.685218l-41.538783-30.853565c-6.811826-3.027478-11.575652-3.027478-20.168347-3.027479-8.370087 0.356174-16.473043 3.027478-23.418435 7.746783l-30.853565 33.213217c-8.637217 9.438609-11.575652 26.134261-0.934957 41.494261l26.134261 41.449739c-2.982957 6.589217-7.657739 13.712696-7.657739 21.414957l-49.552696 10.685217c-17.274435 0.578783-27.024696 14.202435-27.024695 30.764522v43.319652c0 15.404522 9.750261 28.493913 27.024695 33.213217l49.552696 10.685218c0 4.719304 4.674783 13.089391 7.657739 15.938782l-26.134261 46.925914a27.603478 27.603478 0 0 0 0.934957 37.309217l30.853565 33.836522c7.078957 4.452174 15.09287 7.078957 23.418435 7.746782 8.592696 0 13.356522 0 20.168347-3.561739l41.538783-28.538435c6.811826 2.982957 12.777739 5.965913 21.370435 8.325566l9.794782 49.730782c3.82887 14.914783 14.514087 27.38087 30.898087 27.38087h44.432696a32.055652 32.055652 0 0 0 31.744-27.38087l9.794783-49.730782c7.212522-2.493217 14.336-5.298087 21.370434-8.325566l43.631305 28.493913c4.674783 3.561739 11.53113 3.561739 16.294956 3.56174 9.794783 0 16.339478-2.982957 23.997218-7.702261l30.274782-32.634435c12.466087-10.061913 12.466087-26.089739 4.719305-38.511304l-28.226783-46.925914a124.66087 124.66087 0 0 0 8.993391-15.938782l50.131479-10.685218c14.469565-4.763826 26.980174-17.808696 26.980174-33.257739v-43.27513c0-16.562087-12.466087-30.185739-26.980174-30.764522v-0.044522z" p-id="14918"></path></svg>