<svg t="1638867864584" class="icon" viewBox="0 0 1024 1024" version="1.1" xmlns="http://www.w3.org/2000/svg" p-id="50866" width="200" height="200"><path d="M601.088 635.904c-3.584 0-29.696-26.112-11.264-74.24 40.96-40.96 74.24-107.52 74.24-174.08 0-99.84-70.144-152.064-144.384-152.064-77.824 0-144.384 51.712-144.384 152.064 0 66.56 29.696 133.632 70.144 174.08 14.848 40.96-11.264 70.144-18.432 74.24-81.408 29.696-174.08 81.408-174.08 137.216v18.432c0 70.144 137.216 89.088 266.752 89.088 125.952 0 263.168-14.848 263.168-89.088V773.12c-4.096-55.296-100.352-111.104-181.76-137.216z" p-id="50867"></path><path d="M845.312 502.784c-3.584 0-26.112-7.168-11.264-51.712 36.864-36.864 62.976-99.84 62.976-162.816 0-92.672-59.392-144.384-133.632-144.384-51.712 0-99.84 26.112-118.784 77.824 44.544 36.864 74.24 92.672 74.24 166.912 0 77.824-36.864 152.064-77.824 200.192 62.976 22.016 159.232 70.144 185.344 144.384 96.256-3.584 185.344-26.112 185.344-81.408v-18.432c4.096-56.32-84.992-104.448-166.4-130.56z m-666.624 0c3.584 0 26.112-7.168 11.264-51.712-36.864-36.864-62.976-99.84-62.976-162.816C130.56 195.072 189.44 143.36 260.096 143.36c51.712 0 99.84 26.112 118.784 77.824-44.544 36.864-74.24 92.672-74.24 166.912 0 77.824 36.864 152.064 77.824 200.192-62.976 22.016-159.232 70.144-185.344 144.384-96.256-3.584-185.344-26.112-185.344-81.408v-18.432c0-55.808 89.088-103.936 166.912-130.048z" p-id="50868"></path></svg>