<svg t="1638867964873" class="icon" viewBox="0 0 1024 1024" version="1.1" xmlns="http://www.w3.org/2000/svg" p-id="54261" width="200" height="200"><path d="M703.864 523.304c2.288 0 3.432 1.14 3.432 3.42v159.544h160.128c2.288 0 3.432 2.28 4.576 3.42v11.392c0 23.932-4.576 47.868-13.724 69.52-9.152 21.652-22.88 41.024-38.888 56.976-17.16 17.096-35.46 29.632-57.192 38.748-22.876 9.12-45.748 13.676-69.768 13.676-24.02 0-48.04-4.56-69.768-13.676-21.736-7.976-41.18-21.652-57.192-37.608-16.012-17.092-28.592-35.328-37.744-56.98-9.148-22.788-13.724-45.584-13.724-69.512 0-23.932 4.576-47.864 13.724-69.52 8.008-21.648 20.592-39.88 37.744-56.98 17.16-17.092 35.456-29.628 57.192-38.744 22.872-9.12 45.748-13.68 69.768-13.68h11.44z m-226.16 8.712c16.012 0 32.588 0.904 49.728 2.704-42.352 42.44-68.52 100.92-68.52 165.492 0 39.332 9.708 76.4 26.864 108.96H152v-114.76c0-33.2 20.268-62.792 60.8-88.776 40.532-25.984 84.68-44.748 132.452-56.3 47.772-11.548 91.92-17.32 132.452-17.32z m261.392-2.832l9.276 0.924c29.68 2.776 58.432 15.72 79.764 36.98 21.332 21.264 34.316 49.924 37.1 79.508l0.928 9.244c0 1.852-1.856 2.776-1.856 3.7h-125.208c-1.856 0-2.784-1.848-2.784-2.776V531.96c0-1.852 0.928-2.776 2.784-2.776zM472.828 144c41.728 0 77.436 15.084 107.124 45.252 29.692 30.172 44.536 65.9 44.536 107.184 0 41.284-14.84 77.012-44.532 107.18-29.692 30.172-65.4 45.256-107.128 45.256-41.728 0-77.836-15.084-108.328-45.256C334.008 373.448 318.76 337.72 318.76 296.436c0-41.284 15.248-77.012 45.74-107.184C394.992 159.084 431.1 144 472.828 144z" p-id="54262"></path></svg>