<svg t="1638861529388" class="icon" viewBox="0 0 1092 1024" version="1.1" xmlns="http://www.w3.org/2000/svg" p-id="44473" width="200" height="200"><path d="M158.583467 278.050133H40.823467c-21.572267 0-40.823467 13.858133-40.823467 37.0688v708.744534h192.170667c0.068267 0.136533 0.068267-708.744533 0.068266-708.744534 0-25.463467-11.946667-37.0688-33.655466-37.0688zM456.362667 0H338.5344c-21.572267 0-50.449067 23.210667-50.449067 48.7424v975.121067h216.2688V48.7424C504.285867 23.210667 477.934933 0 456.362667 0z m607.163733 278.050133h-117.828267c-21.572267 0-45.738667 13.858133-45.738666 37.0688v708.744534h192.170666V315.118933H1092.266667c0.136533-25.463467-7.099733-37.0688-28.740267-37.0688z m-309.725867 208.554667H636.040533c-21.572267 0-35.976533 30.037333-35.976533 55.7056V1024h192.170667V542.3104c0.136533-25.463467-16.725333-55.7056-38.434134-55.7056z" p-id="44474"></path></svg>